<svg width="299" height="299" viewBox="0 0 299 299" fill="none" xmlns="http://www.w3.org/2000/svg">
<circle cx="149.5" cy="149.5" r="149.5" fill="#F5F2EC"/>
<path d="M121.183 264.466C129.788 264.466 136.764 258.048 136.764 250.132C136.764 242.216 129.788 235.799 121.183 235.799C112.578 235.799 105.602 242.216 105.602 250.132C105.602 258.048 112.578 264.466 121.183 264.466Z" fill="#505749"/>
<path fill-rule="evenodd" clip-rule="evenodd" d="M145.158 266.673C146.17 266.696 147.194 266.705 148.229 266.698C157.961 266.634 167.073 264.896 175.563 261.484C184.053 258.071 191.47 253.49 197.813 247.741C204.156 241.992 209.123 235.245 212.713 227.499C216.304 219.754 218.065 211.516 217.998 202.787C217.931 194.058 216.043 185.844 212.334 178.146C208.625 170.447 203.555 163.765 197.125 158.099C190.694 152.433 183.208 147.949 174.666 144.647C166.124 141.345 156.987 139.726 147.254 139.789C139.225 139.841 131.993 140.728 125.558 142.448C119.123 144.169 113.302 146.557 108.094 149.612C102.886 152.668 98.1997 156.364 94.0357 160.7C89.8716 165.036 86.0454 169.789 82.557 174.96C81.9556 175.859 81.8411 176.811 82.214 177.816C82.5866 178.821 83.3223 179.543 84.4207 179.984L110.406 189.216C111.626 189.656 112.842 189.648 114.055 189.193C115.268 188.737 116.176 188.06 116.777 187.16C120.265 181.989 124.493 178.017 129.46 175.243C134.427 172.468 140.438 171.058 147.494 171.013C152.117 170.982 156.473 171.852 160.563 173.622C164.652 175.389 168.229 177.75 171.293 180.705C174.357 183.658 176.756 187.093 178.489 191.009C180.223 194.925 181.105 198.959 181.137 203.11C181.17 207.374 180.349 211.446 178.676 215.329C177.003 219.211 174.656 222.622 171.637 225.56C168.618 228.496 165.078 230.876 161.016 232.698C156.955 234.519 152.612 235.444 147.989 235.474C147.033 235.48 146.089 235.456 145.158 235.401V266.673Z" fill="#E90083"/>
<path fill-rule="evenodd" clip-rule="evenodd" d="M148.781 22C111.924 22 82 50.695 82 86.0387C82 121.383 111.924 150.077 148.781 150.077C185.639 150.077 215.562 121.383 215.562 86.0387C215.562 50.695 185.639 22 148.781 22ZM148.781 54.0195C130.353 54.0195 115.391 68.367 115.391 86.0387C115.391 103.711 130.353 118.058 148.781 118.058C167.21 118.058 182.172 103.711 182.172 86.0387C182.172 68.367 167.21 54.0195 148.781 54.0195Z" fill="#E90083"/>
</svg>
