<svg width="101" height="101" viewBox="0 0 101 101" fill="none" xmlns="http://www.w3.org/2000/svg">
<path d="M72.5938 28.4063C72.5942 24.1712 71.3774 20.0253 69.0883 16.4622C66.7992 12.8991 63.5343 10.069 59.6823 8.30883C55.8304 6.54871 51.5537 5.93277 47.3616 6.53436C43.1695 7.13594 39.2386 8.9297 36.0371 11.702C32.8356 14.4744 30.4983 18.1084 29.3036 22.1715C28.1089 26.2345 28.1071 30.5553 29.2985 34.6193C30.4899 38.6834 32.8242 42.3193 36.0235 45.0943C39.2227 47.8692 43.1521 49.6662 47.3438 50.2712V91.5313C47.3438 92.3684 47.6763 93.1712 48.2682 93.7631C48.8601 94.355 49.6629 94.6875 50.5 94.6875C51.3371 94.6875 52.1399 94.355 52.7318 93.7631C53.3237 93.1712 53.6562 92.3684 53.6562 91.5313V50.2712C58.9111 49.5053 63.7153 46.8753 67.1919 42.8612C70.6686 38.8471 72.5858 33.7166 72.5938 28.4063ZM50.5 44.1875C47.3788 44.1875 44.3276 43.262 41.7324 41.5279C39.1372 39.7938 37.1145 37.3292 35.92 34.4455C34.7256 31.5619 34.4131 28.3888 35.022 25.3275C35.6309 22.2663 37.1339 19.4543 39.341 17.2473C41.548 15.0402 44.36 13.5372 47.4212 12.9283C50.4825 12.3193 53.6556 12.6319 56.5392 13.8263C59.4229 15.0208 61.8876 17.0435 63.6216 19.6387C65.3557 22.2339 66.2812 25.285 66.2812 28.4063C66.2812 30.4787 65.8731 32.5308 65.08 34.4455C64.2869 36.3602 63.1245 38.0999 61.659 39.5653C60.1936 41.0307 58.4539 42.1932 56.5392 42.9863C54.6246 43.7793 52.5724 44.1875 50.5 44.1875Z" fill="#505749" fill-opacity="0.6"/>
</svg>
